<svg xmlns="http://www.w3.org/2000/svg" xmlns:xlink="http://www.w3.org/1999/xlink" width="500" zoomAndPan="magnify" viewBox="0 0 375 374.999991" height="500" preserveAspectRatio="xMidYMid meet" version="1.0"><defs><g/><clipPath id="8322075bd0"><path d="M 66.261719 202.703125 L 205.578125 202.703125 L 205.578125 209.300781 L 66.261719 209.300781 Z M 66.261719 202.703125 " clip-rule="nonzero"/></clipPath><clipPath id="11a2af0c0b"><path d="M 207.859375 164.515625 L 311.988281 164.515625 L 311.988281 171.109375 L 207.859375 171.109375 Z M 207.859375 164.515625 " clip-rule="nonzero"/></clipPath></defs><g clip-path="url(#8322075bd0)"><path fill="#000000" d="M 66.261719 202.703125 L 205.574219 202.703125 L 205.574219 209.300781 L 66.261719 209.300781 Z M 66.261719 202.703125 " fill-opacity="1" fill-rule="nonzero"/></g><g fill="#ff838a" fill-opacity="1"><g transform="translate(67.710336, 190.922953)"><g><path d="M 15.9375 0.53125 C 13.15625 0.53125 10.679688 -0.0625 8.515625 -1.25 C 6.359375 -2.4375 4.671875 -4.078125 3.453125 -6.171875 C 2.242188 -8.265625 1.640625 -10.675781 1.640625 -13.40625 C 1.640625 -16.144531 2.242188 -18.5625 3.453125 -20.65625 C 4.671875 -22.75 6.359375 -24.390625 8.515625 -25.578125 C 10.679688 -26.765625 13.15625 -27.359375 15.9375 -27.359375 C 18.75 -27.359375 21.226562 -26.765625 23.375 -25.578125 C 25.519531 -24.390625 27.203125 -22.75 28.421875 -20.65625 C 29.648438 -18.5625 30.265625 -16.144531 30.265625 -13.40625 C 30.265625 -10.675781 29.648438 -8.265625 28.421875 -6.171875 C 27.203125 -4.078125 25.519531 -2.4375 23.375 -1.25 C 21.226562 -0.0625 18.75 0.53125 15.9375 0.53125 Z M 7.859375 -13.40625 C 7.859375 -11.800781 8.203125 -10.382812 8.890625 -9.15625 C 9.578125 -7.925781 10.523438 -6.96875 11.734375 -6.28125 C 12.953125 -5.59375 14.351562 -5.25 15.9375 -5.25 C 17.550781 -5.25 18.960938 -5.59375 20.171875 -6.28125 C 21.378906 -6.96875 22.320312 -7.925781 23 -9.15625 C 23.675781 -10.382812 24.015625 -11.800781 24.015625 -13.40625 C 24.015625 -15.019531 23.675781 -16.4375 23 -17.65625 C 22.320312 -18.882812 21.378906 -19.84375 20.171875 -20.53125 C 18.960938 -21.21875 17.550781 -21.5625 15.9375 -21.5625 C 14.351562 -21.5625 12.953125 -21.21875 11.734375 -20.53125 C 10.523438 -19.84375 9.578125 -18.882812 8.890625 -17.65625 C 8.203125 -16.4375 7.859375 -15.019531 7.859375 -13.40625 Z M 7.859375 -13.40625 "/></g></g></g><g fill="#ff838a" fill-opacity="1"><g transform="translate(107.552799, 190.922953)"><g><path d="M 3.21875 0 L 3.21875 -26.8125 L 13.71875 -26.8125 C 15.882812 -26.8125 17.757812 -26.414062 19.34375 -25.625 C 20.925781 -24.832031 22.15625 -23.707031 23.03125 -22.25 C 23.914062 -20.800781 24.359375 -19.09375 24.359375 -17.125 C 24.359375 -15.1875 23.914062 -13.488281 23.03125 -12.03125 C 22.15625 -10.570312 20.925781 -9.445312 19.34375 -8.65625 C 17.757812 -7.863281 15.882812 -7.46875 13.71875 -7.46875 L 9.3125 -7.46875 L 9.3125 0 Z M 9.265625 -12.71875 L 13.21875 -12.71875 C 14.800781 -12.71875 16.019531 -13.09375 16.875 -13.84375 C 17.726562 -14.601562 18.15625 -15.6875 18.15625 -17.09375 C 18.15625 -18.488281 17.726562 -19.570312 16.875 -20.34375 C 16.019531 -21.113281 14.800781 -21.5 13.21875 -21.5 L 9.265625 -21.5 Z M 9.265625 -12.71875 "/></g></g></g><g fill="#ff838a" fill-opacity="1"><g transform="translate(140.9593, 190.922953)"><g><path d="M 3.21875 0 L 3.21875 -26.8125 L 20.84375 -26.8125 L 20.84375 -21.6875 L 9.265625 -21.6875 L 9.265625 -16.125 L 19.8125 -16.125 L 19.8125 -11.03125 L 9.265625 -11.03125 L 9.265625 -5.171875 L 21.265625 -5.171875 L 21.265625 0 Z M 3.21875 0 "/></g></g></g><g fill="#ff838a" fill-opacity="1"><g transform="translate(172.105547, 190.922953)"><g><path d="M 3.21875 0 L 3.21875 -26.8125 L 8.390625 -26.8125 L 20.234375 -10.5 L 20.234375 -26.8125 L 26.28125 -26.8125 L 26.28125 0 L 21.109375 0 L 9.265625 -16.4375 L 9.265625 0 Z M 3.21875 0 "/></g></g></g><g clip-path="url(#11a2af0c0b)"><path fill="#000000" d="M 207.859375 164.515625 L 311.996094 164.515625 L 311.996094 171.109375 L 207.859375 171.109375 Z M 207.859375 164.515625 " fill-opacity="1" fill-rule="nonzero"/></g><g fill="#737373" fill-opacity="1"><g transform="translate(211.825143, 208.43088)"><g><path d="M 0.34375 0 L 11 -26.8125 L 16.96875 -26.8125 L 27.625 0 L 21.109375 0 L 19.3125 -4.640625 L 8.65625 -4.640625 L 6.859375 0 Z M 10.234375 -9.421875 L 17.78125 -9.421875 L 13.984375 -19.234375 Z M 10.234375 -9.421875 "/></g></g></g><g fill="#737373" fill-opacity="1"><g transform="translate(247.72175, 208.43088)"><g><path d="M 3.21875 0 L 3.21875 -26.8125 L 14.671875 -26.8125 C 16.710938 -26.8125 18.488281 -26.441406 20 -25.703125 C 21.507812 -24.960938 22.671875 -23.898438 23.484375 -22.515625 C 24.304688 -21.140625 24.71875 -19.492188 24.71875 -17.578125 C 24.71875 -15.617188 24.269531 -13.925781 23.375 -12.5 C 22.476562 -11.082031 21.222656 -10.019531 19.609375 -9.3125 L 25.171875 0 L 18.125 0 L 13.328125 -8.359375 L 9.3125 -8.359375 L 9.3125 0 Z M 9.234375 -13.484375 L 13.875 -13.484375 C 15.375 -13.484375 16.523438 -13.832031 17.328125 -14.53125 C 18.140625 -15.238281 18.546875 -16.242188 18.546875 -17.546875 C 18.546875 -18.847656 18.140625 -19.847656 17.328125 -20.546875 C 16.523438 -21.253906 15.375 -21.609375 13.875 -21.609375 L 9.234375 -21.609375 Z M 9.234375 -13.484375 "/></g></g></g><g fill="#737373" fill-opacity="1"><g transform="translate(282.622312, 208.43088)"><g><path d="M 9.65625 0 L 9.65625 -21.109375 L 1.15625 -21.109375 L 1.15625 -26.8125 L 24.25 -26.8125 L 24.25 -21.109375 L 15.75 -21.109375 L 15.75 0 Z M 9.65625 0 "/></g></g></g></svg>