<svg xmlns="http://www.w3.org/2000/svg" xmlns:xlink="http://www.w3.org/1999/xlink" width="600" zoomAndPan="magnify" viewBox="0 0 450 149.999998" height="200" preserveAspectRatio="xMidYMid meet" version="1.0"><defs><g/><clipPath id="55a700a2c6"><path d="M 24.792969 100.089844 L 254.15625 100.089844 L 254.15625 110.953125 L 24.792969 110.953125 Z M 24.792969 100.089844 " clip-rule="nonzero"/></clipPath><clipPath id="d52bb2ad1a"><path d="M 257.914062 37.214844 L 429.347656 37.214844 L 429.347656 48.078125 L 257.914062 48.078125 Z M 257.914062 37.214844 " clip-rule="nonzero"/></clipPath></defs><rect x="-45" width="540" fill="#ffffff" y="-15" height="179.999997" fill-opacity="1"/><rect x="-45" width="540" fill="#ffffff" y="-15" height="179.999997" fill-opacity="1"/><g clip-path="url(#55a700a2c6)"><path fill="#000000" d="M 24.792969 100.089844 L 254.148438 100.089844 L 254.148438 110.953125 L 24.792969 110.953125 Z M 24.792969 100.089844 " fill-opacity="1" fill-rule="nonzero"/></g><g fill="#ff838a" fill-opacity="1"><g transform="translate(27.181751, 80.693558)"><g><path d="M 26.234375 0.890625 C 21.648438 0.890625 17.582031 -0.0859375 14.03125 -2.046875 C 10.476562 -4.003906 7.703125 -6.707031 5.703125 -10.15625 C 3.710938 -13.601562 2.71875 -17.578125 2.71875 -22.078125 C 2.71875 -26.578125 3.710938 -30.550781 5.703125 -34 C 7.703125 -37.445312 10.476562 -40.144531 14.03125 -42.09375 C 17.582031 -44.050781 21.648438 -45.03125 26.234375 -45.03125 C 30.859375 -45.03125 34.9375 -44.050781 38.46875 -42.09375 C 42.007812 -40.144531 44.785156 -37.445312 46.796875 -34 C 48.816406 -30.550781 49.828125 -26.578125 49.828125 -22.078125 C 49.828125 -17.578125 48.816406 -13.601562 46.796875 -10.15625 C 44.785156 -6.707031 42.007812 -4.003906 38.46875 -2.046875 C 34.9375 -0.0859375 30.859375 0.890625 26.234375 0.890625 Z M 12.9375 -22.078125 C 12.9375 -19.429688 13.503906 -17.097656 14.640625 -15.078125 C 15.773438 -13.054688 17.335938 -11.476562 19.328125 -10.34375 C 21.328125 -9.207031 23.628906 -8.640625 26.234375 -8.640625 C 28.890625 -8.640625 31.210938 -9.207031 33.203125 -10.34375 C 35.203125 -11.476562 36.757812 -13.054688 37.875 -15.078125 C 38.988281 -17.097656 39.546875 -19.429688 39.546875 -22.078125 C 39.546875 -24.722656 38.988281 -27.054688 37.875 -29.078125 C 36.757812 -31.097656 35.203125 -32.675781 33.203125 -33.8125 C 31.210938 -34.945312 28.890625 -35.515625 26.234375 -35.515625 C 23.628906 -35.515625 21.328125 -34.945312 19.328125 -33.8125 C 17.335938 -32.675781 15.773438 -31.097656 14.640625 -29.078125 C 13.503906 -27.054688 12.9375 -24.722656 12.9375 -22.078125 Z M 12.9375 -22.078125 "/></g></g></g><g fill="#ff838a" fill-opacity="1"><g transform="translate(92.775615, 80.693558)"><g><path d="M 5.296875 0 L 5.296875 -44.15625 L 22.578125 -44.15625 C 26.148438 -44.15625 29.238281 -43.503906 31.84375 -42.203125 C 34.457031 -40.898438 36.488281 -39.046875 37.9375 -36.640625 C 39.394531 -34.242188 40.125 -31.429688 40.125 -28.203125 C 40.125 -25.003906 39.394531 -22.207031 37.9375 -19.8125 C 36.488281 -17.414062 34.457031 -15.5625 31.84375 -14.25 C 29.238281 -12.945312 26.148438 -12.296875 22.578125 -12.296875 L 15.328125 -12.296875 L 15.328125 0 Z M 15.265625 -20.9375 L 21.765625 -20.9375 C 24.367188 -20.9375 26.375 -21.554688 27.78125 -22.796875 C 29.195312 -24.035156 29.90625 -25.816406 29.90625 -28.140625 C 29.90625 -30.453125 29.195312 -32.238281 27.78125 -33.5 C 26.375 -34.757812 24.367188 -35.390625 21.765625 -35.390625 L 15.265625 -35.390625 Z M 15.265625 -20.9375 "/></g></g></g><g fill="#ff838a" fill-opacity="1"><g transform="translate(147.77376, 80.693558)"><g><path d="M 5.296875 0 L 5.296875 -44.15625 L 34.3125 -44.15625 L 34.3125 -35.703125 L 15.265625 -35.703125 L 15.265625 -26.5625 L 32.609375 -26.5625 L 32.609375 -18.171875 L 15.265625 -18.171875 L 15.265625 -8.515625 L 35.015625 -8.515625 L 35.015625 0 Z M 5.296875 0 "/></g></g></g><g fill="#ff838a" fill-opacity="1"><g transform="translate(199.050779, 80.693558)"><g><path d="M 5.296875 0 L 5.296875 -44.15625 L 13.8125 -44.15625 L 33.3125 -17.28125 L 33.3125 -44.15625 L 43.265625 -44.15625 L 43.265625 0 L 34.75 0 L 15.265625 -27.0625 L 15.265625 0 Z M 5.296875 0 "/></g></g></g><g clip-path="url(#d52bb2ad1a)"><path fill="#000000" d="M 257.914062 37.214844 L 429.355469 37.214844 L 429.355469 48.078125 L 257.914062 48.078125 Z M 257.914062 37.214844 " fill-opacity="1" fill-rule="nonzero"/></g><g fill="#737373" fill-opacity="1"><g transform="translate(264.4424, 109.517421)"><g><path d="M 0.5625 0 L 18.109375 -44.15625 L 27.9375 -44.15625 L 45.484375 0 L 34.75 0 L 31.796875 -7.625 L 14.25 -7.625 L 11.296875 0 Z M 16.84375 -15.515625 L 29.265625 -15.515625 L 23.03125 -31.671875 Z M 16.84375 -15.515625 "/></g></g></g><g fill="#737373" fill-opacity="1"><g transform="translate(323.540082, 109.517421)"><g><path d="M 5.296875 0 L 5.296875 -44.15625 L 24.15625 -44.15625 C 27.519531 -44.15625 30.441406 -43.546875 32.921875 -42.328125 C 35.398438 -41.109375 37.3125 -39.363281 38.65625 -37.09375 C 40.007812 -34.820312 40.6875 -32.109375 40.6875 -28.953125 C 40.6875 -25.710938 39.945312 -22.925781 38.46875 -20.59375 C 37 -18.257812 34.941406 -16.503906 32.296875 -15.328125 L 41.4375 0 L 29.84375 0 L 21.953125 -13.75 L 15.328125 -13.75 L 15.328125 0 Z M 15.203125 -22.203125 L 22.828125 -22.203125 C 25.316406 -22.203125 27.222656 -22.78125 28.546875 -23.9375 C 29.867188 -25.09375 30.53125 -26.742188 30.53125 -28.890625 C 30.53125 -31.035156 29.867188 -32.6875 28.546875 -33.84375 C 27.222656 -35 25.316406 -35.578125 22.828125 -35.578125 L 15.203125 -35.578125 Z M 15.203125 -22.203125 "/></g></g></g><g fill="#737373" fill-opacity="1"><g transform="translate(380.997943, 109.517421)"><g><path d="M 15.890625 0 L 15.890625 -34.75 L 1.890625 -34.75 L 1.890625 -44.15625 L 39.921875 -44.15625 L 39.921875 -34.75 L 25.921875 -34.75 L 25.921875 0 Z M 15.890625 0 "/></g></g></g></svg>